<?xml version="1.0" standalone="no"?>
<!DOCTYPE svg PUBLIC "-//W3C//DTD SVG 20010904//EN"
 "http://www.w3.org/TR/2001/REC-SVG-20010904/DTD/svg10.dtd">
<svg version="1.0" xmlns="http://www.w3.org/2000/svg"
 width="987.000000pt" height="300.000000pt" viewBox="0 0 987.000000 300.000000"
 preserveAspectRatio="xMidYMid meet">
<metadata>
Created by potrace 1.15, written by Peter Selinger 2001-2017
</metadata>
<g transform="translate(0.000000,300.000000) scale(0.100000,-0.100000)"
fill="#000000" stroke="none">
<path d="M1828 2966 c-64 -6 -120 -14 -124 -18 -4 -5 -30 -8 -58 -8 -63 0 -68
-7 -91 -121 -9 -46 -23 -102 -30 -124 -8 -22 -22 -80 -31 -130 -10 -49 -20
-92 -24 -95 -3 -3 -15 -45 -25 -95 -10 -49 -21 -94 -25 -100 -17 -24 -20 -63
-4 -69 20 -8 687 -8 707 0 15 5 13 38 -4 60 -15 19 -40 188 -33 229 11 68 27
88 104 127 38 20 194 26 205 8 3 -5 17 -10 31 -10 22 0 24 4 24 43 0 52 -46
129 -90 152 -16 8 -51 18 -77 22 -48 6 -64 17 -174 119 -30 28 -77 29 -281 10z"/>
<path d="M250 2112 c0 -11 9 -27 20 -37 11 -10 20 -24 20 -31 0 -7 6 -17 13
-21 7 -4 21 -21 31 -38 11 -16 28 -38 38 -49 10 -11 18 -23 18 -27 0 -3 13
-24 30 -45 46 -61 57 -75 99 -134 22 -30 44 -59 48 -65 5 -5 20 -26 33 -45 13
-19 30 -41 37 -48 7 -7 13 -16 13 -20 0 -4 10 -19 23 -33 l22 -25 978 4 c953
4 977 4 970 -14 -3 -11 -13 -23 -20 -27 -8 -5 -18 -20 -23 -33 l-10 -24 -895
0 -896 0 6 -22 c4 -13 15 -30 26 -40 10 -9 19 -20 19 -25 0 -4 10 -19 23 -33
13 -14 32 -39 43 -55 21 -32 30 -44 78 -98 17 -20 40 -48 51 -63 11 -15 29
-37 40 -49 23 -26 42 -53 52 -75 4 -8 15 -21 25 -28 10 -7 18 -18 18 -25 0 -6
9 -20 20 -32 31 -31 100 -122 100 -132 0 -4 9 -14 20 -21 11 -7 20 -19 20 -27
0 -8 9 -20 20 -27 11 -7 20 -17 20 -21 0 -5 18 -30 40 -56 22 -26 40 -52 40
-57 0 -5 9 -15 20 -22 11 -7 20 -19 20 -27 0 -8 9 -20 20 -27 11 -7 20 -17 20
-21 0 -5 18 -30 40 -56 22 -26 40 -52 40 -57 0 -5 9 -15 20 -22 11 -7 20 -19
20 -27 0 -8 9 -19 20 -25 11 -6 20 -15 20 -21 0 -5 18 -33 40 -62 23 -29 48
-62 58 -75 49 -67 74 -76 96 -38 6 10 20 29 31 41 19 21 37 44 77 97 10 13 35
46 58 75 22 29 40 57 40 62 0 6 9 15 20 21 11 6 20 16 20 23 0 6 9 20 20 32
34 34 100 122 100 134 0 5 9 15 20 21 11 6 20 17 20 25 0 8 8 20 18 27 9 7 26
26 36 43 11 16 30 41 43 55 13 14 23 29 23 35 0 6 9 16 20 23 11 7 20 17 20
23 0 6 12 26 28 43 51 60 74 91 84 114 6 12 15 22 19 22 6 0 49 65 49 76 0 2
-74 4 -164 4 -159 0 -164 -1 -179 -23 -8 -12 -26 -35 -41 -52 -14 -16 -26 -33
-26 -36 0 -3 -10 -18 -22 -32 -13 -14 -31 -37 -40 -49 -10 -13 -33 -43 -53
-67 -20 -24 -41 -53 -46 -63 -6 -11 -18 -28 -27 -38 -9 -10 -25 -29 -34 -42
-10 -13 -33 -43 -53 -67 -20 -24 -41 -53 -46 -63 -6 -11 -19 -28 -29 -38 -19
-19 -20 -19 -47 18 -15 20 -31 41 -36 47 -4 5 -36 48 -72 95 -35 47 -71 94
-80 105 -25 33 -143 188 -162 214 -10 13 -28 35 -40 48 -13 13 -23 26 -23 30
0 3 -18 28 -41 57 l-41 51 700 5 699 5 27 31 c14 18 26 35 26 38 0 3 7 14 16
24 9 9 34 42 55 72 47 65 66 90 99 133 25 32 76 103 95 134 11 18 24 35 60 77
14 16 25 32 25 35 0 3 11 19 25 35 14 16 25 33 25 38 0 4 -528 8 -1173 8
l-1173 0 -19 33 c-10 17 -24 36 -32 40 -7 4 -13 12 -13 17 0 6 467 10 1249 10
l1250 0 23 33 c12 17 30 41 40 51 10 11 20 28 24 38 3 10 9 18 14 18 5 0 19
17 31 38 13 20 29 41 36 45 7 4 13 17 13 27 0 20 -20 20 -1605 20 -1553 0
-1605 -1 -1605 -18z"/>
<path d="M3545 1640 c-3 -5 -21 -10 -38 -10 -108 0 -227 -89 -227 -170 0 -10
-4 -22 -10 -25 -5 -3 -10 -24 -10 -45 0 -21 5 -42 10 -45 6 -3 10 -16 10 -28
1 -58 87 -129 179 -147 31 -7 63 -15 72 -20 9 -5 38 -12 64 -16 45 -6 85 -32
85 -54 0 -27 -41 -50 -89 -50 -74 0 -107 16 -128 61 l-18 38 -104 1 -104 0 7
-46 c10 -74 88 -184 131 -184 7 0 15 -5 17 -11 6 -17 115 -39 193 -39 74 0
175 21 202 42 64 52 92 91 103 144 12 58 7 133 -12 168 -25 46 -95 92 -155
102 -24 3 -43 10 -43 14 0 4 -33 13 -74 19 -87 14 -108 27 -108 66 0 38 25 55
82 55 51 0 87 -20 100 -56 9 -23 13 -24 115 -24 96 0 106 2 102 18 -3 9 -8 34
-12 54 -3 21 -11 43 -18 50 -7 7 -20 25 -30 41 -10 15 -24 27 -31 27 -8 0 -16
7 -19 14 -7 17 -96 46 -143 46 -18 0 -36 5 -39 10 -3 6 -17 10 -30 10 -13 0
-27 -4 -30 -10z"/>
<path d="M6995 1640 c-3 -5 -21 -10 -39 -10 -18 0 -55 -7 -82 -15 -67 -20
-140 -99 -150 -162 -9 -62 1 -165 18 -178 8 -5 17 -18 21 -28 4 -9 17 -21 31
-27 13 -5 25 -13 27 -19 4 -10 109 -41 141 -41 10 0 18 -4 18 -9 0 -5 23 -11
50 -15 75 -10 100 -24 100 -56 0 -37 -42 -54 -115 -48 -59 5 -99 31 -116 76
-8 21 -14 22 -109 22 l-100 0 0 -33 c0 -18 4 -37 8 -43 5 -5 15 -25 22 -44 18
-46 75 -101 136 -131 44 -21 62 -24 174 -24 110 0 130 3 172 23 70 35 97 59
124 115 44 91 21 230 -42 259 -13 6 -24 15 -24 19 0 4 -26 16 -57 25 -32 9
-67 20 -78 24 -11 5 -51 15 -90 24 -65 15 -95 34 -95 61 0 47 97 72 156 40 18
-9 35 -28 38 -41 6 -23 9 -24 111 -24 103 0 105 0 105 23 0 13 -4 27 -9 33 -5
5 -14 26 -21 46 -24 78 -131 148 -226 148 -18 0 -36 5 -39 10 -3 6 -17 10 -30
10 -13 0 -27 -4 -30 -10z"/>
<path d="M7985 1614 c-27 -9 -55 -22 -61 -30 -6 -8 -16 -14 -21 -14 -6 0 -31
-21 -57 -47 -44 -44 -86 -116 -86 -148 0 -7 -6 -15 -12 -17 -16 -6 -18 -215
-3 -226 6 -4 17 -26 24 -50 6 -24 21 -52 32 -63 10 -10 19 -23 19 -28 0 -15
82 -79 139 -107 52 -27 65 -29 176 -29 113 0 123 2 178 29 172 88 251 248 218
444 -7 40 -19 78 -26 85 -7 7 -15 23 -19 35 -16 51 -131 146 -203 167 -63 19
-232 18 -298 -1z m235 -190 c59 -32 100 -89 100 -139 0 -14 5 -25 10 -25 6 0
10 -7 10 -15 0 -8 -4 -15 -9 -15 -5 0 -11 -18 -15 -40 -7 -42 -66 -120 -91
-120 -7 0 -15 -6 -17 -12 -7 -19 -128 -17 -152 2 -66 55 -89 83 -102 127 -29
94 8 186 95 237 45 27 122 26 171 0z"/>
<path d="M3990 1240 l0 -380 100 0 100 0 0 78 c0 76 1 78 39 118 21 23 41 48
44 55 3 10 12 6 31 -16 42 -49 89 -109 121 -155 59 -83 52 -80 185 -80 100 0
120 3 120 15 0 8 -8 23 -17 33 -10 9 -27 31 -37 47 -11 17 -25 34 -33 38 -7 4
-13 14 -13 22 0 8 -8 20 -17 27 -18 13 -37 39 -50 68 -4 8 -15 21 -25 28 -10
7 -18 17 -18 22 0 6 -21 37 -46 71 -26 33 -43 64 -38 67 8 6 61 67 189 217 19
22 46 55 61 73 l26 32 -124 0 -124 0 -38 -42 c-21 -24 -56 -65 -79 -91 -23
-27 -53 -61 -67 -75 -14 -15 -40 -44 -57 -65 l-33 -39 0 156 0 156 -100 0
-100 0 0 -380z"/>
<path d="M4720 1609 c0 -6 8 -23 19 -37 10 -15 26 -43 36 -62 27 -57 64 -123
72 -129 5 -3 19 -28 33 -55 61 -120 73 -141 80 -146 5 -3 16 -24 25 -48 10
-23 21 -42 26 -42 5 0 9 -52 9 -115 l0 -115 95 0 95 0 0 114 c0 80 4 119 13
128 7 7 22 31 33 53 12 22 34 63 49 90 46 82 83 147 106 190 12 22 27 47 34
55 7 8 18 32 26 52 7 21 18 39 25 42 13 5 49 -62 73 -137 7 -20 16 -39 21 -42
4 -3 16 -30 25 -60 10 -30 21 -55 25 -55 4 0 11 -11 14 -25 4 -14 19 -54 35
-88 16 -34 32 -73 36 -87 4 -14 13 -34 19 -45 7 -11 17 -33 23 -50 6 -16 21
-54 34 -82 l23 -53 105 0 106 0 19 60 c11 33 22 60 26 60 4 0 15 25 25 55 9
30 21 57 25 60 4 3 16 30 25 60 10 30 21 55 25 55 4 0 15 27 26 60 10 33 22
60 26 60 3 0 14 24 23 53 10 28 23 61 29 72 7 11 20 43 30 70 10 28 23 54 27
59 5 6 9 16 9 23 0 10 -26 13 -110 13 -125 0 -123 2 -155 -100 -10 -30 -24
-61 -32 -68 -7 -7 -13 -21 -13 -29 0 -9 -13 -45 -30 -80 -16 -34 -30 -66 -30
-69 0 -13 -52 -114 -59 -114 -4 0 -15 26 -25 58 -10 31 -24 66 -30 77 -7 11
-21 44 -30 73 -10 28 -21 52 -26 52 -4 0 -10 13 -13 28 -3 15 -21 60 -39 100
l-33 72 -218 0 c-239 0 -228 3 -262 -65 -11 -22 -25 -45 -31 -51 -6 -7 -17
-27 -24 -46 -8 -18 -17 -35 -21 -38 -4 -3 -18 -28 -31 -56 l-24 -51 -19 41
c-11 23 -26 47 -32 54 -7 7 -13 17 -13 22 0 8 -63 118 -78 136 -5 6 -13 20
-16 32 -7 21 -13 22 -122 22 -76 0 -114 -4 -114 -11z"/>
<path d="M6400 1240 l0 -381 103 3 102 3 3 378 2 377 -105 0 -105 0 0 -380z"/>
<path d="M7432 1243 l3 -378 103 -3 102 -3 0 381 0 380 -105 0 -105 0 2 -377z"/>
<path d="M8630 1240 l0 -380 105 0 105 0 2 188 3 187 20 -24 c11 -13 31 -35
44 -50 12 -14 39 -46 60 -70 20 -25 48 -56 64 -69 15 -14 27 -29 27 -33 0 -5
18 -26 40 -49 22 -22 44 -49 50 -60 9 -18 21 -20 95 -20 l85 0 0 380 0 380
-105 0 -105 0 0 -192 c-1 -154 -3 -190 -13 -177 -32 42 -105 125 -129 148 -16
14 -28 31 -28 39 0 7 -6 15 -12 18 -7 2 -42 40 -78 84 l-65 79 -82 1 -83 0 0
-380z"/>
<path d="M4202 758 c-14 -14 -16 -88 -2 -88 6 0 10 -52 10 -135 l0 -135 -30 0
c-28 0 -30 -2 -30 -41 l0 -41 120 3 c136 4 148 10 157 78 3 22 10 41 14 41 5
0 9 50 9 110 0 67 4 110 10 110 6 0 10 20 10 45 l0 45 -60 0 -60 0 0 -163 c0
-165 -5 -187 -38 -187 -12 0 -14 27 -10 160 l4 160 -23 0 c-13 0 -23 5 -23 10
0 6 7 10 15 10 8 0 15 7 15 15 0 19 -70 21 -88 3z"/>
<path d="M6230 589 c0 -142 -2 -163 -17 -175 -40 -30 -43 -20 -43 121 l0 135
-40 0 -40 0 0 -135 0 -135 -30 0 c-28 0 -30 -2 -30 -40 l0 -40 99 0 c171 0
182 12 189 206 4 105 8 134 18 134 10 0 14 14 14 45 l0 45 -60 0 -60 0 0 -161z"/>
<path d="M3670 515 l0 -195 90 0 c76 0 93 -3 109 -19 45 -45 161 -39 210 11
17 18 31 40 31 50 0 10 5 18 10 18 6 0 10 16 10 35 0 19 -4 35 -10 35 -5 0
-10 7 -10 16 0 33 -35 74 -77 90 -98 38 -196 -14 -210 -111 -5 -41 -8 -45 -34
-45 l-29 0 0 155 0 155 -45 0 -45 0 0 -195z"/>
<path d="M4540 515 l0 -195 40 0 40 0 0 195 0 195 -40 0 -40 0 0 -195z"/>
<path d="M5470 555 l0 -155 -24 0 c-20 0 -25 6 -30 44 -25 163 -271 167 -292
4 -6 -45 -9 -48 -35 -48 l-29 0 0 110 0 110 -45 0 c-25 0 -45 -4 -45 -10 0 -5
-10 -10 -23 -10 -33 0 -110 -44 -124 -71 -16 -31 -17 -120 -1 -154 19 -43 66
-55 204 -55 68 0 124 -4 124 -8 0 -5 18 -17 39 -27 55 -24 147 -17 172 13 17
22 22 22 323 22 l306 0 0 141 0 140 -42 -3 -43 -3 -3 -97 -3 -98 -34 0 -35 0
0 49 c0 39 -6 55 -29 82 -30 33 -30 33 -135 37 l-106 4 0 69 0 69 -45 0 -45 0
0 -155z m254 -81 c9 -8 16 -29 16 -45 l0 -29 -90 0 -90 0 0 45 0 45 74 0 c54
0 79 -4 90 -16z"/>
<path d="M8320 515 l0 -195 394 0 c229 0 405 4 420 10 16 6 27 6 31 0 4 -6 15
-10 26 -10 10 0 19 -4 19 -10 0 -5 18 -10 40 -10 22 0 40 5 40 10 0 6 8 10 18
10 9 0 28 9 42 20 24 18 25 24 29 149 l3 131 -41 0 -41 0 0 -97 c0 -54 -4
-103 -8 -109 -14 -22 -53 -27 -73 -8 -15 14 -19 31 -19 91 l0 73 -45 0 -45 0
0 -73 c0 -82 -9 -97 -57 -97 l-33 0 0 85 0 85 -40 0 -40 0 0 -85 0 -85 -70 0
-70 0 0 49 c0 102 -26 121 -166 121 -49 0 -84 4 -84 10 0 6 4 10 9 10 5 0 17
23 27 50 10 28 22 50 26 50 4 0 8 5 8 10 0 6 -22 10 -50 10 -35 0 -50 -4 -50
-13 0 -7 -8 -22 -18 -33 -31 -32 -53 -105 -44 -139 l8 -30 118 -5 c126 -5 136
-10 136 -62 l0 -28 -155 0 -155 0 0 155 0 155 -45 0 -45 0 0 -195z"/>
<path d="M6859 581 c-23 -19 -23 -21 -9 -48 15 -26 20 -28 71 -25 69 4 99 -17
99 -72 l0 -36 -115 0 -115 0 0 80 0 80 -40 0 -40 0 0 -110 0 -110 -31 0 c-63
0 -69 10 -69 120 l0 100 -46 0 -46 0 4 -124 c3 -118 4 -125 28 -145 14 -11 33
-20 43 -21 9 0 17 -4 17 -10 0 -6 37 -10 90 -10 l90 0 0 35 0 35 430 0 430 0
0 140 0 140 -68 0 c-52 0 -78 -5 -112 -24 -55 -29 -70 -55 -70 -123 l0 -53
-45 0 -45 0 0 101 0 100 -42 -3 -43 -3 -3 -97 -3 -98 -58 0 -59 0 -4 64 c-4
59 -7 68 -40 100 -35 34 -40 36 -106 36 -54 0 -75 -4 -93 -19z"/>
<path d="M8069 577 c-19 -12 -35 -33 -37 -45 -2 -12 -8 -22 -13 -22 -5 0 -9
-39 -9 -86 l0 -86 -67 5 c-38 3 -77 8 -89 12 -17 5 -22 0 -32 -31 -12 -41 -5
-54 31 -54 9 0 17 -4 17 -10 0 -6 45 -10 115 -10 l115 0 0 114 c0 118 9 146
46 146 11 0 14 -19 14 -95 l0 -95 45 0 45 0 0 140 0 140 -74 0 c-60 0 -79 -4
-107 -23z"/>
<path d="M3330 451 c0 -125 8 -156 47 -173 16 -7 31 -16 34 -21 3 -4 46 -7 95
-5 l89 3 3 153 3 152 -46 0 -45 0 0 -110 c0 -110 0 -110 -24 -110 -14 0 -36 4
-50 10 -26 9 -26 11 -26 110 l0 100 -40 0 -40 0 0 -109z"/>
<path d="M7920 543 c-36 -14 -40 -53 -8 -83 17 -16 18 -20 6 -20 -26 0 -32
-49 -9 -71 38 -36 81 -15 81 40 0 23 -5 31 -17 31 -17 1 -17 1 0 14 10 8 17
27 17 48 0 29 -5 37 -22 42 -26 7 -27 7 -48 -1z"/>
</g>
</svg>
